<mxfile>
    <diagram id="-pcRB1szolX4Oo3Rn_cl" name="Page-1">
        <mxGraphModel dx="883" dy="617" grid="1" gridSize="10" guides="1" tooltips="1" connect="1" arrows="1" fold="1" page="1" pageScale="1" pageWidth="850" pageHeight="1100" math="0" shadow="0">
            <root>
                <mxCell id="0"/>
                <mxCell id="1" parent="0"/>
                <mxCell id="2" value="&lt;div style=&quot;text-align: left ; font-size: 28px&quot;&gt;&lt;font style=&quot;font-size: 28px&quot;&gt;User&lt;/font&gt;&lt;/div&gt;&lt;font style=&quot;font-size: 28px&quot;&gt;&lt;div style=&quot;text-align: left&quot;&gt;&lt;br&gt;&lt;/div&gt;&lt;div style=&quot;text-align: left&quot;&gt;&lt;span&gt;Name: String&lt;/span&gt;&lt;/div&gt;&lt;div style=&quot;text-align: left&quot;&gt;&lt;span&gt;Username: String&lt;/span&gt;&lt;/div&gt;&lt;div style=&quot;text-align: left&quot;&gt;&lt;span&gt;Password: String&lt;/span&gt;&lt;/div&gt;&lt;div style=&quot;text-align: left&quot;&gt;Admin: Boolean&lt;/div&gt;&lt;/font&gt;" style="rounded=0;whiteSpace=wrap;html=1;" parent="1" vertex="1">
                    <mxGeometry x="250" y="20" width="300" height="260" as="geometry"/>
                </mxCell>
                <mxCell id="3" value="&lt;div style=&quot;text-align: left ; font-size: 25px&quot;&gt;&lt;font style=&quot;font-size: 25px&quot;&gt;Product&lt;/font&gt;&lt;/div&gt;&lt;font style=&quot;font-size: 25px&quot;&gt;&lt;div style=&quot;text-align: left&quot;&gt;&lt;font style=&quot;font-size: 25px&quot;&gt;&lt;br&gt;&lt;/font&gt;&lt;/div&gt;&lt;div style=&quot;text-align: left&quot;&gt;&lt;font style=&quot;font-size: 25px&quot;&gt;ID: Number&lt;/font&gt;&lt;/div&gt;&lt;div style=&quot;text-align: left&quot;&gt;&lt;span&gt;&lt;font style=&quot;font-size: 25px&quot;&gt;Name: String&lt;/font&gt;&lt;/span&gt;&lt;/div&gt;&lt;div style=&quot;text-align: left&quot;&gt;&lt;span&gt;&lt;font style=&quot;font-size: 25px&quot;&gt;Description: String&lt;/font&gt;&lt;/span&gt;&lt;/div&gt;&lt;div style=&quot;text-align: left&quot;&gt;&lt;span&gt;&lt;font style=&quot;font-size: 25px&quot;&gt;Img: String URL&lt;/font&gt;&lt;/span&gt;&lt;/div&gt;&lt;div style=&quot;text-align: left&quot;&gt;&lt;span&gt;&lt;font style=&quot;font-size: 25px&quot;&gt;Product Type: String&lt;/font&gt;&lt;/span&gt;&lt;/div&gt;&lt;div style=&quot;text-align: left&quot;&gt;&lt;font style=&quot;font-size: 25px&quot;&gt;Price: Number&lt;/font&gt;&lt;br&gt;&lt;/div&gt;&lt;/font&gt;" style="rounded=0;whiteSpace=wrap;html=1;" parent="1" vertex="1">
                    <mxGeometry y="370" width="300" height="270" as="geometry"/>
                </mxCell>
                <mxCell id="26" value="&lt;div style=&quot;font-size: 28px&quot;&gt;&lt;font style=&quot;font-size: 28px&quot;&gt;Store&lt;/font&gt;&lt;/div&gt;&lt;div style=&quot;font-size: 28px&quot;&gt;&lt;font style=&quot;font-size: 28px&quot;&gt;&lt;br&gt;&lt;/font&gt;&lt;/div&gt;&lt;font style=&quot;font-size: 28px&quot;&gt;&lt;div&gt;&lt;span&gt;Name:&amp;nbsp; String&lt;/span&gt;&lt;/div&gt;&lt;div&gt;Products:&amp;nbsp;&lt;/div&gt;&lt;div&gt;[ { amount, id } ]&lt;/div&gt;&lt;/font&gt;" style="rounded=0;whiteSpace=wrap;html=1;align=center;" parent="1" vertex="1">
                    <mxGeometry x="570" y="350" width="260" height="290" as="geometry"/>
                </mxCell>
                <mxCell id="27" value="" style="endArrow=classic;startArrow=classic;html=1;exitX=1;exitY=0.5;exitDx=0;exitDy=0;" edge="1" parent="1" source="3">
                    <mxGeometry width="50" height="50" relative="1" as="geometry">
                        <mxPoint x="400" y="490" as="sourcePoint"/>
                        <mxPoint x="570" y="500" as="targetPoint"/>
                    </mxGeometry>
                </mxCell>
                <mxCell id="28" value="" style="endArrow=none;html=1;exitX=1.006;exitY=0.344;exitDx=0;exitDy=0;exitPerimeter=0;" edge="1" parent="1" source="3">
                    <mxGeometry width="50" height="50" relative="1" as="geometry">
                        <mxPoint x="400" y="510" as="sourcePoint"/>
                        <mxPoint x="370" y="505" as="targetPoint"/>
                    </mxGeometry>
                </mxCell>
                <mxCell id="29" value="" style="endArrow=none;html=1;entryX=1;entryY=0.662;entryDx=0;entryDy=0;entryPerimeter=0;" edge="1" parent="1" target="3">
                    <mxGeometry width="50" height="50" relative="1" as="geometry">
                        <mxPoint x="370" y="505" as="sourcePoint"/>
                        <mxPoint x="380" y="515" as="targetPoint"/>
                    </mxGeometry>
                </mxCell>
                <mxCell id="30" value="" style="endArrow=none;html=1;entryX=-0.003;entryY=0.665;entryDx=0;entryDy=0;entryPerimeter=0;" edge="1" parent="1" target="26">
                    <mxGeometry width="50" height="50" relative="1" as="geometry">
                        <mxPoint x="490" y="500" as="sourcePoint"/>
                        <mxPoint x="510" y="540" as="targetPoint"/>
                    </mxGeometry>
                </mxCell>
                <mxCell id="31" value="" style="endArrow=none;html=1;entryX=0;entryY=0.31;entryDx=0;entryDy=0;entryPerimeter=0;" edge="1" parent="1" target="26">
                    <mxGeometry width="50" height="50" relative="1" as="geometry">
                        <mxPoint x="490" y="500" as="sourcePoint"/>
                        <mxPoint x="500" y="390" as="targetPoint"/>
                    </mxGeometry>
                </mxCell>
            </root>
        </mxGraphModel>
    </diagram>
</mxfile>